<?xml version="1.0" standalone="no"?>
<!DOCTYPE svg PUBLIC "-//W3C//DTD SVG 20010904//EN"
 "http://www.w3.org/TR/2001/REC-SVG-20010904/DTD/svg10.dtd">
<svg version="1.0" xmlns="http://www.w3.org/2000/svg"
 width="300.000000pt" height="38.000000pt" viewBox="0 0 300.000000 38.000000"
 preserveAspectRatio="xMidYMid meet">
<metadata>
Created by potrace 1.10, written by Peter Selinger 2001-2011
</metadata>
<g transform="translate(0.000000,38.000000) scale(0.100000,-0.100000)"
fill="#000000" stroke="none">
<path d="M76 319 c-21 -16 -26 -29 -26 -63 0 -52 24 -86 74 -105 38 -15 53
-38 36 -55 -6 -6 -17 -3 -33 12 -27 25 -59 28 -76 8 -10 -11 -9 -21 3 -45 21
-39 78 -57 136 -41 47 13 70 42 70 88 0 48 -16 71 -65 93 -54 24 -68 40 -49
57 8 7 14 9 14 4 0 -15 50 -32 76 -26 32 8 30 26 -7 63 -26 26 -38 31 -78 31
-34 0 -56 -6 -75 -21z m139 -180 c4 -10 1 -27 -5 -36 -7 -12 -10 -13 -7 -3 2
8 -2 27 -9 42 -12 24 -12 27 1 22 8 -3 17 -14 20 -25z"/>
<path d="M635 320 c-3 -6 -3 -64 1 -130 6 -107 5 -120 -10 -120 -12 0 -16 10
-16 48 0 115 -19 145 -93 144 -71 -1 -116 -56 -67 -82 22 -12 27 -30 8 -30 -6
0 -24 -15 -39 -33 -24 -27 -30 -30 -39 -17 -12 19 -13 80 -1 80 5 0 12 13 16
29 9 40 -29 111 -59 111 -27 0 -46 -18 -46 -42 0 -10 -4 -18 -10 -18 -13 0
-13 -36 1 -62 6 -11 11 -45 11 -75 1 -41 6 -61 19 -74 21 -21 60 -25 90 -8 14
7 24 7 32 0 14 -11 142 -8 171 4 11 5 26 4 37 -3 29 -18 47 -14 66 14 l17 26
17 -24 c20 -26 62 -33 78 -14 8 10 6 25 -9 57 -24 53 -25 82 -5 99 8 7 15 21
15 31 0 15 -7 19 -34 19 -18 0 -39 -7 -46 -15 -22 -26 -30 -17 -30 34 0 35 -4
51 -16 55 -24 9 -52 7 -59 -4z m-287 -89 c2 -13 -1 -28 -6 -33 -13 -13 -34 25
-26 47 9 22 28 13 32 -14z m216 -37 c3 -9 6 -32 6 -51 0 -35 0 -36 -20 -18
-15 14 -17 22 -9 37 6 11 8 26 5 34 -3 8 -1 14 3 14 5 0 12 -7 15 -16z m131 6
c3 -5 17 -10 31 -10 14 0 24 -6 24 -14 0 -7 3 -28 6 -46 6 -30 5 -32 -15 -25
-12 4 -28 2 -36 -5 -24 -20 -35 -2 -35 56 0 50 10 68 25 44z m-175 -20 c0 -5
-9 -10 -20 -10 -11 0 -20 5 -20 10 0 6 9 10 20 10 11 0 20 -4 20 -10z m10 -75
c0 -8 -7 -15 -15 -15 -16 0 -20 12 -8 23 11 12 23 8 23 -8z"/>
<path d="M1137 324 c-18 -18 -6 -54 23 -69 l30 -16 0 -93 c0 -106 11 -127 58
-110 26 9 26 10 24 104 l-2 95 35 22 34 22 11 -37 c5 -20 10 -74 10 -119 0
-71 2 -82 19 -88 45 -14 71 35 57 110 -6 31 -4 35 14 35 18 0 20 -6 20 -69 0
-68 7 -81 40 -81 17 0 40 32 40 56 0 34 14 30 31 -8 17 -40 67 -60 113 -47 48
14 57 30 59 107 2 65 0 74 -24 98 -46 46 -131 31 -151 -27 -13 -37 -25 -37
-33 0 -8 38 -27 53 -62 51 -43 -3 -55 -1 -49 9 4 5 2 20 -3 33 -9 23 -12 24
-148 26 -77 1 -142 -1 -146 -4z m123 -47 c0 -7 -5 -18 -12 -25 -9 -9 -16 -8
-30 5 -26 23 -22 33 12 33 18 0 30 -5 30 -13z m164 -46 c15 -16 15 -19 1 -31
-18 -15 -20 -14 -29 23 -7 31 4 35 28 8z m97 -53 c30 -32 32 -58 4 -58 -8 0
-15 8 -15 18 0 10 -7 27 -15 38 -33 43 -14 45 26 2z m151 7 c0 -5 -5 -11 -11
-13 -6 -2 -11 4 -11 13 0 9 5 15 11 13 6 -2 11 -8 11 -13z m-32 -35 c0 -3 -6
-14 -13 -24 -11 -15 -17 -17 -35 -7 -28 15 -28 28 1 51 20 18 23 18 35 3 6 -9
12 -20 12 -23z m55 -45 c0 -5 -10 -11 -22 -13 -16 -2 -23 2 -23 13 0 11 7 15
23 13 12 -2 22 -7 22 -13z"/>
<path d="M1874 317 c-2 -7 -3 -74 -2 -148 l3 -134 30 0 c26 0 31 5 40 40 10
35 16 41 52 50 45 11 73 31 73 51 0 8 6 14 14 14 16 0 32 -97 21 -130 -10 -31
39 -39 69 -11 28 26 32 26 39 2 4 -18 13 -20 88 -18 l84 3 3 91 c2 84 1 93
-20 112 -47 45 -158 20 -158 -35 0 -17 6 -24 20 -24 11 0 20 -7 20 -15 0 -8
-7 -15 -15 -15 -9 0 -18 -7 -21 -15 -4 -8 -12 -15 -20 -15 -10 0 -14 24 -16
103 -3 98 -4 102 -26 105 -31 5 -52 -14 -52 -46 0 -26 0 -25 -34 11 -33 36
-35 37 -110 37 -54 0 -78 -4 -82 -13z m66 -36 c0 -12 -20 -25 -27 -18 -7 7 6
27 18 27 5 0 9 -4 9 -9z m123 -38 c16 -19 16 -20 -13 -41 -38 -28 -42 -28 -28
3 8 19 8 31 0 50 -11 23 -10 25 6 16 9 -5 25 -18 35 -28z m-69 -5 c13 -21 -15
-53 -33 -35 -12 12 -15 40 -4 51 9 9 25 3 37 -16z m146 -13 c0 -33 -2 -35 -20
-25 -23 12 -26 30 -8 48 20 20 28 14 28 -23z m-184 -74 c-4 -6 -16 -16 -27
-21 -18 -10 -19 -7 -19 37 l0 48 26 -27 c15 -14 23 -31 20 -37z m392 4 c3 -49
3 -49 -17 -31 -16 15 -18 23 -10 38 6 11 8 26 5 35 -4 9 -1 13 6 11 8 -3 14
-26 16 -53z m-47 22 c-13 -13 -26 -3 -16 12 3 6 11 8 17 5 6 -4 6 -10 -1 -17z
m9 -72 c0 -8 -7 -15 -15 -15 -8 0 -15 7 -15 15 0 8 7 15 15 15 8 0 15 -7 15
-15z"/>
<path d="M2862 308 c-6 -6 -12 -20 -12 -29 0 -10 -4 -21 -10 -24 -5 -3 -10
-17 -10 -30 0 -13 5 -27 10 -30 6 -3 10 -34 10 -69 0 -75 18 -99 72 -94 25 2
34 8 36 24 2 11 -4 27 -13 34 -20 17 -20 93 0 110 18 15 20 41 4 57 -6 6 -17
22 -23 35 -13 26 -45 35 -64 16z m43 -68 c8 -13 -4 -50 -16 -50 -13 0 -22 27
-15 45 6 17 22 20 31 5z"/>
<path d="M870 242 c-28 -23 -44 -104 -30 -148 18 -53 46 -69 118 -65 36 2 63
35 56 71 -4 19 -2 30 5 30 6 0 11 15 11 34 0 51 -46 96 -98 96 -23 0 -49 -7
-62 -18z m70 -66 c-14 -14 -24 0 -16 21 6 15 8 15 16 3 6 -9 5 -19 0 -24z
m-30 -33 c0 -14 -27 -30 -36 -20 -3 2 -2 17 2 31 5 21 9 24 20 15 8 -6 14 -18
14 -26z m50 -32 c0 -6 -5 -13 -10 -16 -15 -9 -43 3 -35 15 8 13 45 13 45 1z"/>
<path d="M2490 253 c-80 -8 -75 -1 -72 -112 3 -89 5 -101 23 -106 35 -11 49
12 49 80 0 45 4 64 14 68 22 9 26 -2 26 -68 0 -71 14 -91 55 -81 18 5 25 13
25 31 0 31 22 33 35 3 13 -29 69 -48 110 -37 39 11 69 47 54 65 -7 8 -7 19 -1
31 15 29 12 77 -7 102 -12 16 -31 25 -63 28 -53 6 -85 -8 -99 -43 -10 -29 -32
-27 -37 2 -2 10 -11 25 -20 32 -16 12 -23 12 -92 5z m129 -93 c7 0 26 9 41 20
l28 20 7 -31 c10 -43 -17 -72 -52 -56 -18 8 -29 8 -44 -1 -26 -17 -26 -16 -31
26 -3 20 -8 46 -13 57 -7 16 -2 15 22 -7 16 -16 35 -28 42 -28z m113 25 c0 -5
-5 -11 -11 -13 -6 -2 -11 4 -11 13 0 9 5 15 11 13 6 -2 11 -8 11 -13z m45 -19
c-4 -9 -11 -16 -18 -16 -6 0 -8 7 -5 16 3 9 6 21 6 27 0 8 3 8 11 0 7 -7 9
-19 6 -27z m-17 -50 c0 -3 -7 -12 -16 -21 -13 -12 -19 -13 -31 -4 -11 10 -11
14 -1 20 14 9 48 12 48 5z"/>
</g>
</svg>
